<svg xmlns="http://www.w3.org/2000/svg" xmlns:xlink="http://www.w3.org/1999/xlink" version="1.1" x="0px" y="0px" viewBox="0 0 100 125" enable-background="new 0 0 100 100" xml:space="preserve"><path d="M25.269,47.291c-4.28,0-7.762,3.482-7.762,7.762c0,4.28,3.482,7.763,7.762,7.763s7.762-3.482,7.762-7.763  C33.031,50.773,29.549,47.291,25.269,47.291z M25.269,57.964c-1.605,0-2.911-1.306-2.911-2.911c0-1.604,1.306-2.91,2.911-2.91  s2.911,1.306,2.911,2.91C28.18,56.658,26.874,57.964,25.269,57.964z"/><path d="M71.468,47.291c-4.28,0-7.763,3.482-7.763,7.762c0,4.28,3.482,7.763,7.763,7.763s7.763-3.482,7.763-7.763  C79.23,50.773,75.748,47.291,71.468,47.291z M71.468,57.964c-1.605,0-2.911-1.306-2.911-2.911c0-1.604,1.306-2.91,2.911-2.91  s2.911,1.306,2.911,2.91C74.379,56.658,73.073,57.964,71.468,57.964z"/><path d="M75.372,41.221c-3.579-0.389-7.631-0.53-9.48-0.53c-2.607,0-6.231-1.497-9.736-2.943  c-3.946-1.629-8.027-3.313-11.602-3.313c-4.33,0-13.599,1.531-21.022,4.006c-8.439,2.813-13.71,4.587-15.247,9.695  c-0.694,0.25-1.221,0.886-1.283,1.671c-0.055,0.702,0.274,1.342,0.808,1.725c0,0.044-0.006,0.082-0.006,0.126  c0,1.999,0.832,4.689,4.795,6.147c1.259,0.466,2.651-0.182,3.114-1.438c0.463-1.256-0.181-2.651-1.438-3.113  c-1.62-0.597-1.62-1.15-1.62-1.596c0-3.801,0.918-4.784,12.411-8.615c1.081-0.36,2.191-0.693,3.309-1.003  c0.061,0.081,0.119,0.162,0.192,0.235l9.724,9.724c0.426,0.427,0.985,0.64,1.543,0.64s1.118-0.213,1.543-0.64  c0.853-0.853,0.853-2.234,0-3.087l-3.13-3.131l26.416-0.307c0.415,0.041,0.826,0.068,1.229,0.068c1.678,0,5.592,0.137,8.957,0.502  c2.205,0.239,4.178,0.563,5.904,0.963c-0.151,0.287-0.248,0.606-0.257,0.952c-0.033,1.205,0.917,2.209,2.122,2.242l4.447,0.122  c0.021,0,0.041,0.001,0.061,0.001c0.272,0,0.532-0.055,0.774-0.147c0.723,0.711,1.124,1.486,1.162,2.32  c-0.158,0.112-0.591,0.354-1.591,0.56c-1.742,0.36-3.76,0.264-3.776,0.264c-1.352-0.09-2.48,0.957-2.55,2.294  c-0.07,1.338,0.957,2.479,2.294,2.55c0.038,0.003,0.374,0.019,0.896,0.019c0.968,0,2.579-0.058,4.117-0.375  c4.755-0.981,5.465-3.666,5.465-5.179C93.917,46.395,87.678,42.557,75.372,41.221z M33.299,40.833  c4.744-1.017,9.062-1.547,11.254-1.547c2.018,0,4.643,0.895,7.349,1.969L33.93,41.464L33.299,40.833z"/><path d="M59.078,54.825c-0.001,0-0.003,0-0.004,0l-21.8,0.034c-1.339,0.002-2.424,1.09-2.422,2.43  c0.002,1.338,1.088,2.422,2.426,2.422c0.001,0,0.002,0,0.004,0l21.8-0.034c1.34-0.002,2.424-1.09,2.422-2.43  C61.502,55.909,60.416,54.825,59.078,54.825z"/><path d="M7.925,38.953h9.703c1.34,0,2.425-1.086,2.425-2.426s-1.085-2.426-2.425-2.426H7.925  c-1.34,0-2.426,1.086-2.426,2.426S6.585,38.953,7.925,38.953z"/><text x="0" y="115" fill="#000000" font-size="5px" font-weight="bold" font-family="'Helvetica Neue', Helvetica, Arial-Unicode, Arial, Sans-serif">Created by Mr. Minuvi</text><text x="0" y="120" fill="#000000" font-size="5px" font-weight="bold" font-family="'Helvetica Neue', Helvetica, Arial-Unicode, Arial, Sans-serif">from the Noun Project</text></svg>